# xmcd CD database file
#
# Track frame offsets:
#	150
#	17939
#	36402
#	54665
#	72714
#	91558
#	107648
#	129551
#	147408
#	163708
#	187509
#	205272
#	221195
#	243840
#	260737
#	279041
#
# Disc length: 3896 seconds
#
# Revision: 0
# Processed by: cddbd v1.5PL3 Copyright (c) Steve Scherf et al.
# Submitted via: CDex 1.51
#
DISCID=eb0f3610
DTITLE=Paul Millns - When Love comes calling
DYEAR=1900
DGENRE=Blues
TTITLE0=When love comes calling
TTITLE1=What´s she doing now
TTITLE2=Home for the weekend
TTITLE3=Forget her
TTITLE4=Gasoline Heart
TTITLE5=Happy go Lucky Joe
TTITLE6=World on your shoulders
TTITLE7=unwelcome neighbour
TTITLE8=Lovely Day
TTITLE9=Till the morning comes
TTITLE10=Old enough
TTITLE11=Daddy don´t come home
TTITLE12=Don´t wait too long
TTITLE13=Following Footsteps
TTITLE14=Who can really tell
TTITLE15=Play on
EXTD=
EXTT0=
EXTT1=
EXTT2=
EXTT3=
EXTT4=
EXTT5=
EXTT6=
EXTT7=
EXTT8=
EXTT9=
EXTT10=
EXTT11=
EXTT12=
EXTT13=
EXTT14=
EXTT15=
PLAYORDER=
